<?xml version="1.0" encoding="utf-8"?>
<!-- Generator: $$$/GeneralStr/196=Adobe Illustrator 27.6.0, SVG Export Plug-In . SVG Version: 6.00 Build 0)  -->
<svg version="1.1" id="Calque_1" xmlns="http://www.w3.org/2000/svg" xmlns:xlink="http://www.w3.org/1999/xlink" x="0px" y="0px"
	 viewBox="0 0 512 512" style="enable-background:new 0 0 512 512;" xml:space="preserve">
<style type="text/css">
	.st0{fill:#FFFFFF;}
</style>
<g id="_02_User">
	<path class="st0" d="M40.3,495C27.5,495,17,484.6,17,471.7c0-6.2,2.5-12.1,6.8-16.5L455.2,23.8c9.1-9.1,23.9-9.1,33,0
		s9.1,23.9,0,33L56.8,488.2C52.5,492.5,46.5,495,40.3,495z"/>
	<path class="st0" d="M471.7,495c-6.2,0-12.1-2.5-16.5-6.8L23.8,56.8c-9.1-9.1-9.1-23.9,0-33s23.9-9.1,33,0l431.3,431.3
		c9.1,9.1,9.1,23.9,0,33C483.8,492.5,477.8,495,471.7,495z"/>
</g>
</svg>
