<?xml version="1.0" encoding="utf-8"?>
<!-- Generator: $$$/GeneralStr/196=Adobe Illustrator 27.6.0, SVG Export Plug-In . SVG Version: 6.00 Build 0)  -->
<svg version="1.1" id="Calque_1" xmlns="http://www.w3.org/2000/svg" xmlns:xlink="http://www.w3.org/1999/xlink" x="0px" y="0px"
	 viewBox="0 0 512 512" style="enable-background:new 0 0 512 512;" xml:space="preserve">
<style type="text/css">
	.st0{fill:#FFFFFF;}
</style>
<g>
	<path class="st0" d="M392.5,279.6H118.2c-5.7,0-11.2-2.4-15.2-6.8c-4-4.4-6.3-10.3-6.3-16.4c0-6.2,2.3-12.1,6.3-16.4
		c4-4.4,9.5-6.8,15.2-6.8h274.3c5.7,0,11.2,2.4,15.2,6.8c4,4.4,6.3,10.3,6.3,16.4c0,6.2-2.3,12.1-6.3,16.4
		C403.7,277.1,398.2,279.6,392.5,279.6z M392.5,116.9H118.2c-5.7,0-11.2-2.4-15.2-6.8c-4-4.4-6.3-10.3-6.3-16.4S99,81.6,103,77.2
		c4-4.4,9.5-6.8,15.2-6.8h274.3c5.7,0,11.2,2.4,15.2,6.8c4,4.4,6.3,10.3,6.3,16.4s-2.3,12.1-6.3,16.4
		C403.7,114.5,398.2,116.9,392.5,116.9z M256.7,442.3H118.2c-5.7,0-11.2-2.4-15.2-6.8c-4-4.4-6.3-10.3-6.3-16.4S99,407,103,402.6
		c4-4.4,9.5-6.8,15.2-6.8h138.5c5.7,0,11.2,2.4,15.2,6.8c4,4.4,6.3,10.3,6.3,16.4s-2.3,12.1-6.3,16.4
		C267.8,439.8,262.4,442.3,256.7,442.3z M339.4,419c0-12.8-9.6-23.2-21.5-23.2s-21.5,10.4-21.5,23.2s9.6,23.2,21.5,23.2
		S339.4,431.9,339.4,419z M394.3,419c0-12.8-9.6-23.2-21.5-23.2s-21.5,10.4-21.5,23.2s9.6,23.2,21.5,23.2S394.3,431.9,394.3,419z"/>
</g>
<g>
	<path class="st0" d="M81.1,476.8l2,15.5c-12,0-23.2-2.7-33.6-8c-10.4-5.4-18.8-13.9-25.2-25.6c-6.4-11.7-9.6-26.8-9.6-45.1
		c0-11.4,0.8-24.1,2.4-38.1c1.6-14,3.3-27.7,4.9-41.2c1.6-13.5,2.4-24.9,2.4-34.2c0-9-1.4-15.6-4.1-19.9c-2.8-4.3-6.4-7.3-11.1-9.1
		c-4.6-1.7-9.8-2.6-15.6-2.6v-23.3c5.8-0.3,10.9-1.5,15.6-3.4c4.6-1.9,8.3-5.3,11.1-10.1c2.8-4.8,4.1-11.7,4.1-20.7
		c0-10-0.8-21.8-2.4-35.5c-1.6-13.6-3.3-27.4-4.9-41.4c-1.6-14-2.4-26.5-2.4-37.5c0-19,3.2-34.3,9.6-45.8
		c6.4-11.6,14.8-20.1,25.2-25.6C59.9,19.7,71.1,17,83.1,17v15.5c-7,0-15.6,2-21.9,6c-6.3,4-11.3,10.3-15.2,18.9
		c-3.9,8.6-5.8,20-5.8,34.2c0,13.8,1.4,28.2,4.3,43.2c2.9,15,4.3,32.2,4.3,51.5c0,12.1-1.5,22.7-4.5,31.8c-3,9.2-7,16.7-12,22.5
		c-5,5.9-10.6,10.4-16.9,13.5v3.1c9.3,3.8,17,10.7,23.1,20.7c6.1,10,9.2,24.5,9.2,43.5c0,13.8-0.6,25.7-1.9,35.7
		c-1.3,10-2.5,19.8-3.8,29.3c-1.3,9.5-1.9,20.5-1.9,32.9c0,16.9,4.1,30.7,12.4,41.4C60.8,471.4,70.3,476.8,81.1,476.8z"/>
</g>
<g>
	<path class="st0" d="M461.2,460.7c8.3-10.7,12.4-24.5,12.4-41.4c0-12.4-0.6-23.4-1.9-32.9c-1.2-9.5-2.5-19.2-3.8-29.3
		c-1.2-10-1.9-21.9-1.9-35.7c0-19,3.1-33.5,9.2-43.5c6.1-10,13.8-16.9,23.1-20.7v-3.1c-6.3-3.1-11.9-7.6-16.9-13.5
		c-5-5.9-9-13.4-12-22.5c-3-9.1-4.5-19.8-4.5-31.8c0-19.3,1.4-36.5,4.3-51.5c2.9-15,4.3-29.4,4.3-43.2c0-14.2-1.9-25.5-5.8-34.2
		c-3.9-8.6-8.9-14.9-15.2-18.9c-6.3-4-14.9-6-21.9-6V17c12,0,23.2,2.8,33.6,8.3c10.4,5.5,18.8,14.1,25.2,25.6
		c6.4,11.6,9.6,26.8,9.6,45.8c0,11.1-0.8,23.6-2.4,37.5c-1.6,14-3.3,27.8-4.9,41.4c-1.6,13.6-2.4,25.5-2.4,35.5
		c0,9,1.4,15.9,4.1,20.7c2.8,4.8,6.4,8.2,11.1,10.1c4.6,1.9,9.8,3,15.6,3.4v23.3c-5.8,0-10.9,0.9-15.6,2.6
		c-4.6,1.7-8.3,4.7-11.1,9.1c-2.8,4.3-4.1,11-4.1,19.9c0,9.3,0.8,20.7,2.4,34.2c1.6,13.5,3.3,27.2,4.9,41.2
		c1.6,14,2.4,26.7,2.4,38.1c0,18.3-3.2,33.3-9.6,45.1c-6.4,11.7-14.8,20.3-25.2,25.6c-10.4,5.3-21.6,8-33.6,8l2-15.5
		C443.4,476.8,452.9,471.4,461.2,460.7z"/>
</g>
</svg>
