<?xml version="1.0" encoding="utf-8"?>
<!-- Generator: $$$/GeneralStr/196=Adobe Illustrator 27.6.0, SVG Export Plug-In . SVG Version: 6.00 Build 0)  -->
<svg version="1.1" id="b6de87db-e731-4627-aba6-6a97c219f0be"
	 xmlns="http://www.w3.org/2000/svg" xmlns:xlink="http://www.w3.org/1999/xlink" x="0px" y="0px" viewBox="0 0 35 35"
	 style="enable-background:new 0 0 35 35;" xml:space="preserve">
<style type="text/css">
	.st0{fill:#FFFFFF;}
</style>
<path class="st0" d="M17.5,25.9c-4.6,0-8.4-3.8-8.4-8.4c0-4.6,3.8-8.4,8.4-8.4c4.6,0,8.4,3.8,8.4,8.4l0,0
	C25.9,22.1,22.1,25.9,17.5,25.9z M17.5,11.6c-3.2,0-5.9,2.6-5.9,5.9s2.6,5.9,5.9,5.9s5.9-2.6,5.9-5.9C23.4,14.3,20.7,11.6,17.5,11.6
	z"/>
<path class="st0" d="M17.5,5.5L17.5,5.5c-0.7,0-1.3-0.6-1.2-1.3l0.1-2.7c0-0.7,0.6-1.2,1.3-1.2c0.7,0,1.2,0.6,1.2,1.3l-0.1,2.7
	C18.7,4.9,18.2,5.5,17.5,5.5z"/>
<path class="st0" d="M26.9,9.4c-0.7,0-1.2-0.6-1.2-1.3c0-0.3,0.1-0.7,0.4-0.9l2-1.9c0.5-0.5,1.3-0.4,1.8,0.1c0.5,0.5,0.4,1.3,0,1.7
	l-2,1.9C27.5,9.2,27.2,9.4,26.9,9.4z"/>
<path class="st0" d="M33.5,18.8L33.5,18.8l-2.8-0.1c-0.7,0-1.2-0.6-1.2-1.3c0,0,0,0,0,0c0-0.7,0.5-1.2,1.2-1.2c0,0,0.1,0,0.1,0
	l2.7,0.1c0.7,0,1.2,0.6,1.2,1.3C34.8,18.3,34.2,18.8,33.5,18.8L33.5,18.8z"/>
<path class="st0" d="M28.7,30.1c-0.3,0-0.7-0.1-0.9-0.4l-1.9-2c-0.5-0.5-0.5-1.3,0-1.8c0.5-0.5,1.3-0.5,1.8,0c0,0,0,0,0,0l1.9,2
	c0.5,0.5,0.5,1.3,0,1.8C29.4,30,29.1,30.1,28.7,30.1z"/>
<path class="st0" d="M17.4,34.8L17.4,34.8c-0.7,0-1.3-0.6-1.3-1.3c0,0,0,0,0,0l0.1-2.7c0-0.7,0.6-1.2,1.3-1.2c0.7,0,1.2,0.6,1.2,1.3
	l0,0l-0.1,2.7C18.6,34.2,18.1,34.8,17.4,34.8z"/>
<path class="st0" d="M6.1,30c-0.7,0-1.2-0.6-1.3-1.2c0-0.3,0.1-0.7,0.4-0.9l2-1.9c0.5-0.5,1.3-0.5,1.8,0c0.5,0.5,0.5,1.3,0,1.8
	c0,0,0,0,0,0l-2,1.9C6.7,29.9,6.4,30,6.1,30z"/>
<path class="st0" d="M4.2,18.7L4.2,18.7l-2.8-0.1c-0.7,0-1.2-0.6-1.2-1.3c0,0,0,0,0,0c0-0.7,0.6-1.2,1.3-1.2c0,0,0,0,0,0l2.7,0.1
	c0.7,0,1.2,0.6,1.2,1.3C5.5,18.2,4.9,18.7,4.2,18.7L4.2,18.7z"/>
<path class="st0" d="M8.1,9.3c-0.3,0-0.7-0.1-0.9-0.4L5.4,7C4.9,6.5,4.9,5.7,5.4,5.2c0.5-0.5,1.3-0.5,1.8,0.1l1.9,2
	C9.5,7.7,9.5,8.5,9,9C8.8,9.2,8.5,9.3,8.1,9.3z"/>
</svg>
