<?xml version="1.0" encoding="utf-8"?>
<!-- Generator: $$$/GeneralStr/196=Adobe Illustrator 27.6.0, SVG Export Plug-In . SVG Version: 6.00 Build 0)  -->
<svg version="1.1" id="Calque_1" xmlns="http://www.w3.org/2000/svg" xmlns:xlink="http://www.w3.org/1999/xlink" x="0px" y="0px"
	 viewBox="0 0 240 234" style="enable-background:new 0 0 240 234;" xml:space="preserve">
<style type="text/css">
	.st0{fill:#49021F;}
	.st1{fill:#FF3366;}
</style>
<path class="st0" d="M50.2,11.7h139.5c21.1,0,38.2,17.1,38.2,38.2v134.1c0,21.1-17.1,38.2-38.2,38.2H50.2
	c-21.1,0-38.2-17.1-38.2-38.2V50C12,28.8,29.1,11.7,50.2,11.7z"/>
<g id="vlpa">
	<g id="vlpb">
		<path class="st1" d="M87.2,61.2v103c0,1.1-0.5,1.6-1.4,1.6H66.2c-0.9,0-1.3-0.5-1.3-1.6v-103c0-0.9,0.5-1.3,1.4-1.3h19.5
			c0.6-0.1,1.2,0.3,1.3,1C87.2,61,87.2,61.1,87.2,61.2z"/>
		<path class="st1" d="M145,167c-7.4,0.1-14.8-1.4-21.5-4.5c-6.3-2.9-11.5-7.7-15.1-13.6c-3.7-6.1-5.5-13.7-5.5-22.8
			c-0.1-7.4,1.8-14.7,5.5-21.1c3.8-6.5,9.3-11.9,15.9-15.5c7-3.9,15.4-5.8,25.3-5.8c0.5,0,1.2,0,2.1,0.1s1.9,0.1,3.1,0.2V52.4
			c0-0.7,0.3-1.1,1-1.1h20.3c0.5-0.1,0.9,0.3,1,0.7v0.2v95.2c0,1.8,0.1,3.8,0.2,6c0.2,2.1,0.3,4.1,0.4,5.8c0,0.7-0.3,1.3-1,1.6
			c-5.2,2.2-10.7,3.8-16.3,4.8C155.4,166.5,150.2,167,145,167L145,167z M154.8,147v-44c-0.9-0.2-1.8-0.4-2.7-0.5
			c-1.1-0.1-2.2-0.2-3.3-0.2c-3.9,0-7.8,0.8-11.3,2.6c-3.4,1.7-6.3,4.2-8.5,7.4s-3.3,7.5-3.3,12.7c-0.1,3.5,0.5,7,1.7,10.3
			c1,2.7,2.5,5.1,4.5,7.1c1.9,1.8,4.2,3.2,6.8,4c2.7,0.9,5.5,1.3,8.3,1.3c1.5,0,2.9-0.1,4.2-0.2C152.5,147.6,153.7,147.4,154.8,147
			L154.8,147z"/>
	</g>
</g>
</svg>
