<?xml version="1.0" encoding="utf-8"?>
<!-- Generator: $$$/GeneralStr/196=Adobe Illustrator 27.6.0, SVG Export Plug-In . SVG Version: 6.00 Build 0)  -->
<svg version="1.1" id="Calque_1" xmlns="http://www.w3.org/2000/svg" xmlns:xlink="http://www.w3.org/1999/xlink" x="0px" y="0px"
	 viewBox="0 0 512 512" style="enable-background:new 0 0 512 512;" xml:space="preserve">
<style type="text/css">
	.st0{fill:#AAAAAA;}
</style>
<path class="st0" d="M111.2,462.7l-6,27.5H85.3l26-107.1h25.1l26.4,107.1h-20.7l-6.6-27.5H111.2L111.2,462.7z M132.7,444.6
	l-5.3-22.7c-1.4-6.3-2.9-14.4-4.1-20.6h-0.4c-1.1,6.3-2.5,14.4-3.8,20.6l-5.2,22.7H132.7L132.7,444.6z"/>
<path class="st0" d="M225.2,377.4V467c0,8.9,0.2,17.9,0.5,23.2h-17l-0.8-11.3h-0.4c-3.8,8.6-11.3,13-19.3,13
	c-14.6,0-26.3-15.7-26.3-39.9c-0.1-26,12.8-41.3,27.6-41.3c7.7,0,13.5,3.5,16.2,8.7h0.3v-42.1L225.2,377.4L225.2,377.4z M206,445.5
	c0-1.4,0-3-0.3-4.4c-1.1-6.5-5.3-11.8-11.2-11.8c-8.8,0-13.2,9.9-13.2,22.1c0,13,5.2,21.3,13.1,21.3c5.5,0,10.1-4.8,11.2-11.6
	c0.3-1.6,0.4-3.5,0.4-5.4L206,445.5L206,445.5z"/>
<path class="st0" d="M262.6,491.9c-18,0-31.9-14.9-31.9-40c0-25.1,13.1-41.1,33-41.1c18.8,0,31.4,16.4,31.4,39.9
	c0,28.3-16,41.3-32.4,41.3L262.6,491.9L262.6,491.9z M263,474.6c7.6,0,12.2-9.3,12.2-23.3c0-11.4-3.5-23.2-12.2-23.2
	c-9.1,0-12.6,11.8-12.6,23.4c0,13.2,4.4,23.2,12.4,23.2L263,474.6L263,474.6z"/>
<path class="st0" d="M300.7,377.4h19.2v44.3h0.3c3.6-6.6,10.1-10.9,18.6-10.9c14.8,0,25.5,15.4,25.3,39.2c0,28-14,41.9-28.1,41.9
	c-7.2,0-14.3-3.3-18.5-12.5h-0.2l-0.7,10.8h-16.3c0.2-5.1,0.5-14.4,0.5-23.2L300.7,377.4L300.7,377.4z M319.9,457.1
	c0,1.6,0.2,3,0.4,4.3c1.2,6.4,5.7,11.4,11.2,11.4c8.2,0,13.3-7.9,13.3-21.9c0-12.1-4.3-21.6-13.3-21.6c-5.1,0-9.9,4.9-11.2,11.9
	c-0.2,1.4-0.4,2.9-0.4,4.5V457.1L319.9,457.1z"/>
<path class="st0" d="M384.9,458.9c0.6,10.2,8.5,14.9,17.4,14.9c6.5,0,11.8-1.1,17-3.3l2.5,16.4c-6.3,3.3-14,4.9-22.3,4.9
	c-20.9,0-32.9-15.2-32.9-39.7c0-19.7,9.8-41.5,31.1-41.5c19.9,0,27.5,19.5,27.5,38.8c0,4.1-0.4,7.8-0.6,9.7L384.9,458.9L384.9,458.9
	z M407.5,442.3c0-5.7-2-15.7-10.7-15.7c-8.2,0-11.5,9.3-12,15.7H407.5z"/>
<path class="st0" d="M336.8,321.2l-81.3-188.8l-55.2,127.8h59.1l23.2,61L336.8,321.2z"/>
<path class="st0" d="M301,20.1l125.5,300.9l0.3-300.9L301,20.1z"/>
<path class="st0" d="M85.1,20.1v298.8L211.9,20.1L85.1,20.1z"/>
</svg>
