<?xml version="1.0" encoding="utf-8"?>
<!-- Generated by IcoMoon.io -->
<!DOCTYPE svg PUBLIC "-//W3C//DTD SVG 1.1//EN" "http://www.w3.org/Graphics/SVG/1.1/DTD/svg11.dtd">
<svg version="1.1" xmlns="http://www.w3.org/2000/svg" xmlns:xlink="http://www.w3.org/1999/xlink" width="512" height="512" viewBox="0 0 512 512">
<g>
</g>
	<path d="M111.165 462.695l-5.96 27.464h-19.897l25.979-107.059h25.057l26.45 107.059h-20.665l-6.564-27.464h-24.402zM132.679 444.57l-5.273-22.733c-1.372-6.349-2.898-14.428-4.147-20.634h-0.379c-1.116 6.349-2.519 14.438-3.799 20.634l-5.161 22.733h18.759z" fill="#000000" />
	<path d="M225.229 377.365v89.61c0 8.899 0.236 17.94 0.492 23.183h-17.008l-0.758-11.264h-0.389c-3.789 8.56-11.315 13.005-19.282 13.005-14.602 0-26.317-15.698-26.317-39.865-0.123-26.041 12.831-41.298 27.577-41.298 7.701 0 13.496 3.481 16.231 8.724h0.266v-42.087h19.19zM206.039 445.502c0-1.413 0-2.99-0.266-4.423-1.106-6.543-5.274-11.766-11.192-11.766-8.816 0-13.23 9.861-13.23 22.087 0 13.026 5.181 21.289 13.097 21.289 5.53 0 10.066-4.782 11.223-11.612 0.256-1.587 0.358-3.492 0.358-5.397v-10.178z" fill="#000000" />
	<path d="M262.625 491.889c-18.002 0-31.857-14.919-31.857-40.038 0-25.078 13.107-41.124 32.994-41.124 18.78 0 31.406 16.363 31.406 39.885 0 28.283-16.046 41.278-32.399 41.278h-0.144zM263.024 474.573c7.577 0 12.206-9.329 12.206-23.327 0-11.428-3.533-23.214-12.206-23.214-9.063 0-12.575 11.776-12.575 23.368 0 13.168 4.403 23.173 12.442 23.173h0.133z" fill="#000000" />
	<path d="M300.708 377.365h19.159v44.308h0.276c3.615-6.635 10.055-10.937 18.596-10.937 14.756 0 25.477 15.411 25.344 39.23 0 27.966-13.978 41.933-28.078 41.933-7.219 0-14.264-3.338-18.524-12.534h-0.236l-0.738 10.793h-16.281c0.246-5.099 0.481-14.438 0.481-23.183v-89.61zM319.867 457.113c0 1.577 0.154 2.99 0.389 4.281 1.25 6.359 5.714 11.418 11.172 11.418 8.182 0 13.261-7.906 13.261-21.893 0-12.073-4.281-21.606-13.261-21.606-5.13 0-9.923 4.935-11.172 11.919-0.236 1.444-0.389 2.857-0.389 4.464v11.418z" fill="#000000" />
	<path d="M384.891 458.865c0.645 10.178 8.469 14.93 17.387 14.93 6.523 0 11.848-1.096 17.029-3.318l2.498 16.363c-6.277 3.318-13.967 4.905-22.282 4.905-20.941 0-32.88-15.237-32.88-39.7 0-19.722 9.8-41.482 31.12-41.482 19.856 0 27.484 19.548 27.484 38.789 0 4.127-0.399 7.772-0.625 9.687l-39.731-0.174zM407.47 442.348c0-5.735-2.038-15.719-10.721-15.719-8.182 0-11.459 9.339-11.981 15.719h22.702z" fill="#000000" />
	<path d="M336.845 321.209l-81.337-188.795-55.184 127.806h59.054l23.214 60.99z" fill="#000000" />
	<path d="M301.015 20.111l125.532 300.943 0.327-300.943z" fill="#000000" />
	<path d="M85.125 20.111v298.824l126.802-298.824z" fill="#000000" />
</svg>
