<?xml version="1.0" encoding="utf-8"?>
<!-- Generator: $$$/GeneralStr/196=Adobe Illustrator 27.6.0, SVG Export Plug-In . SVG Version: 6.00 Build 0)  -->
<svg version="1.1" id="Layer_1" xmlns="http://www.w3.org/2000/svg" xmlns:xlink="http://www.w3.org/1999/xlink" x="0px" y="0px"
	 viewBox="0 0 240 234" style="enable-background:new 0 0 240 234;" xml:space="preserve">
<style type="text/css">
	.st0{fill:#001E36;}
	.st1{fill:#31A8FF;}
</style>
<g id="Layer_2_1_">
	<g id="Surfaces">
		<g id="Photo_Surface">
			<g id="Outline_no_shadow">
				<path class="st0" d="M50.2,11.7h139.5c21.1,0,38.2,17.1,38.2,38.2v134.1c0,21.1-17.1,38.2-38.2,38.2H50.2
					c-21.1,0-38.2-17.1-38.2-38.2V50C12,28.8,29.1,11.7,50.2,11.7z"/>
			</g>
		</g>
	</g>
	<g id="Outlined_Mnemonics_Logos">
		<g id="Ps">
			<path class="st1" d="M60.6,159.4V66.8c0-0.6,0.3-1,0.9-1c1.5,0,3,0,5-0.1c2.2-0.1,4.4-0.1,6.8-0.2c2.4-0.1,5-0.1,7.8-0.2
				c2.8-0.1,5.5-0.1,8.2-0.1c7.4,0,13.5,0.9,18.5,2.8c4.5,1.5,8.6,4.1,12.1,7.4c2.9,2.9,5.1,6.4,6.6,10.3c1.3,3.8,2.1,7.6,2.1,11.7
				c0,7.7-1.8,14.1-5.4,19.2c-3.6,5-8.6,8.8-14.5,11c-6.1,2.2-12.9,3.1-20.2,3.1c-2.2,0-3.6,0-4.5-0.1s-2.2-0.1-3.9-0.1v28.9
				c0.1,0.6-0.4,1.2-1,1.3c-0.1,0-0.2,0-0.4,0H61.7C61,160.6,60.6,160.2,60.6,159.4z M80.2,83.2v30.2c1.3,0.1,2.4,0.2,3.5,0.2h4.8
				c3.5,0,7-0.5,10.3-1.6c2.9-0.8,5.4-2.5,7.4-4.8c1.9-2.2,2.8-5.3,2.8-9.3c0.1-2.8-0.6-5.6-2.1-8c-1.5-2.3-3.7-4.1-6.3-5.1
				c-3.3-1.3-6.9-1.9-10.6-1.8c-2.3,0-4.4,0-6.1,0.1C82.1,83,80.8,83.1,80.2,83.2L80.2,83.2z"/>
			<path class="st1" d="M184.8,107.9c-2.7-1.4-5.6-2.4-8.6-3.1c-3.3-0.7-6.7-1.2-10.1-1.2c-1.8-0.1-3.7,0.2-5.4,0.6
				c-1.2,0.3-2.2,0.9-2.8,1.8c-0.4,0.7-0.7,1.6-0.7,2.4s0.4,1.6,0.9,2.3c0.8,1,1.9,1.8,3.1,2.4c2.1,1.1,4.2,2.1,6.4,3
				c4.9,1.6,9.5,3.9,13.9,6.6c3,1.9,5.4,4.4,7.1,7.5c1.4,2.9,2.2,6,2.1,9.3c0.1,4.2-1.2,8.5-3.5,12c-2.5,3.6-6,6.4-10.1,8
				c-4.4,1.9-9.8,2.9-16.3,2.9c-4.1,0-8.2-0.4-12.2-1.2c-3.1-0.5-6.3-1.5-9.2-2.9c-0.6-0.4-1.1-1-1-1.7V141c0-0.3,0.1-0.6,0.4-0.8
				c0.3-0.2,0.5-0.1,0.8,0.1c3.5,2.1,7.2,3.5,11.2,4.4c3.4,0.9,7,1.4,10.6,1.4c3.4,0,5.9-0.5,7.5-1.3c1.4-0.6,2.4-2.2,2.4-3.8
				c0-1.3-0.7-2.4-2.2-3.6s-4.4-2.5-8.8-4.2c-4.6-1.6-8.8-3.8-12.8-6.5c-2.8-2-5.1-4.6-6.8-7.7c-1.4-2.9-2.2-6-2.1-9.2
				c0-3.9,1.1-7.6,3.1-10.9c2.2-3.6,5.6-6.5,9.5-8.3c4.2-2.2,9.5-3.2,15.9-3.2c3.7,0,7.5,0.3,11.2,0.8c2.7,0.4,5.3,1.1,7.7,2.1
				c0.4,0.1,0.7,0.4,0.9,0.8c0.1,0.4,0.2,0.7,0.2,1.1V107c0,0.4-0.2,0.7-0.4,0.9C185.6,108.1,185.2,108.1,184.8,107.9z"/>
		</g>
	</g>
</g>
</svg>
