<?xml version="1.0" encoding="utf-8"?>
<!-- Generator: $$$/GeneralStr/196=Adobe Illustrator 27.6.0, SVG Export Plug-In . SVG Version: 6.00 Build 0)  -->
<svg version="1.1" id="Calque_1" xmlns="http://www.w3.org/2000/svg" xmlns:xlink="http://www.w3.org/1999/xlink" x="0px" y="0px"
	 viewBox="0 0 240 234" style="enable-background:new 0 0 240 234;" xml:space="preserve">
<style type="text/css">
	.st0{fill:#00005B;}
	.st1{fill:#9999FF;}
</style>
<g id="vlpa">
	<g id="vlpb">
		<g id="vlpc">
			<g id="vlpd">
				<path class="st0" d="M50.4,12h139.1c21.1,0,38.1,17.1,38.1,38.1v133.7c0,21.1-17.1,38.1-38.1,38.1H50.4
					c-21.1,0-38.1-17.1-38.1-38.1V50.1C12.3,29.1,29.4,12,50.4,12z"/>
			</g>
		</g>
	</g>
	<g id="vlpe">
		<g id="vlpf">
			<path class="st1" d="M98.8,137.6H65.4l-6.8,21.2c-0.2,0.8-0.9,1.3-1.7,1.3H40c-1,0-1.3-0.5-1-1.6l28.9-82.8
				c0.3-0.9,0.5-1.7,0.9-2.8c0.4-1.9,0.5-3.9,0.5-5.8c-0.1-0.4,0.3-0.9,0.7-1h0.3h23c0.6,0,1.1,0.3,1.2,0.7l32.8,91.5
				c0.3,1,0,1.4-0.9,1.4h-18.8c-0.6,0.1-1.3-0.4-1.4-1l-7.4-21.5L98.8,137.6z M70.6,119.8h22.8c-0.5-1.9-1.3-4.1-2.1-6.5
				c-0.8-2.4-1.6-5-2.4-7.7c-0.9-2.8-1.7-5.5-2.6-8.3s-1.7-5.4-2.4-8c-0.7-2.5-1.3-4.8-2-7h-0.2c-0.8,3.9-1.8,7.7-3.1,11.6
				c-1.3,4.3-2.7,8.8-4.1,13.3C73.4,111.8,72,116,70.6,119.8z"/>
			<path class="st1" d="M180.1,129.6h-28.4c0.4,2.8,1.3,5.6,2.8,8c1.6,2.4,3.9,4.3,6.6,5.4c3.6,1.5,7.5,2.3,11.5,2.2
				c3.1-0.1,6.3-0.4,9.3-1c2.8-0.4,5.5-1.1,8-2.1c0.4-0.4,0.7-0.2,0.7,0.7v13.7c0,0.4-0.1,0.7-0.2,1.1c-0.2,0.3-0.4,0.4-0.6,0.6
				c-2.9,1.3-5.8,2.2-9,2.7c-4.2,0.8-8.4,1.2-12.7,1.1c-6.8,0-12.6-1.1-17.2-3.1c-4.4-1.9-8.3-4.8-11.3-8.5
				c-2.9-3.5-4.9-7.4-6.2-11.8c-1.3-4.2-1.9-8.6-1.9-13.1c0-4.8,0.7-9.6,2.2-14.3c1.4-4.5,3.7-8.6,6.7-12.3c3-3.6,6.6-6.5,10.9-8.5
				c4.2-2.1,9.2-2.8,15-2.8c4.8-0.1,9.5,0.8,13.9,2.8c3.7,1.6,6.9,4,9.4,7.2c2.3,3.1,4.2,6.5,5.4,10.2c1.2,3.6,1.7,7.3,1.7,10.9
				c0,2.2-0.1,4-0.2,5.7c-0.2,1.7-0.3,3-0.4,3.8c-0.1,0.6-0.6,1.2-1.3,1.2c-0.5,0-1.5,0.1-3,0.2c-1.4,0.2-3.1,0.3-5.2,0.3
				S182.5,129.6,180.1,129.6L180.1,129.6z M151.7,116.5h18.9c2.3,0,4,0,5.1-0.1c0.7-0.1,1.4-0.3,2.1-0.7v-0.9c0-1.2-0.2-2.2-0.5-3.3
				c-1.6-5-6.4-8.4-11.7-8.3c-4.9-0.3-9.6,2.3-11.9,6.8C152.6,112.1,151.9,114.2,151.7,116.5z"/>
		</g>
	</g>
</g>
</svg>
