<?xml version="1.0" encoding="utf-8"?>
<!-- Generator: $$$/GeneralStr/196=Adobe Illustrator 27.6.0, SVG Export Plug-In . SVG Version: 6.00 Build 0)  -->
<svg version="1.1" id="Layer_1" xmlns="http://www.w3.org/2000/svg" xmlns:xlink="http://www.w3.org/1999/xlink" x="0px" y="0px"
	 viewBox="0 0 256 256" style="enable-background:new 0 0 256 256;" xml:space="preserve">
<style type="text/css">
	.st0{fill:#464342;}
</style>
<path class="st0" d="M226,14H30c-8.8,0-16,7.2-16,16v196c0,8.8,7.2,16,16,16h196c8.8,0,16-7.2,16-16V30C242,21.2,234.8,14,226,14z
	 M134.7,188.7c0,23.5-13.6,34.1-33.5,34.1c-18,0-30.9-12.2-36.2-23.5l18.2-11.2c3.5,6.3,8.9,11.2,16.6,11.2
	c7.4,0,11.6-2.9,11.6-14.2v-73.8h23.2V188.7z M185.6,222.8c-20.9,0-32.8-10.5-39.4-23.5l17.7-11.7c4.8,7.8,10.1,15.3,21.2,15.3
	c9.3,0,14.2-4.6,14.2-11c0-7.7-5.1-10.4-15.3-14.9l-5.6-2.4c-16.2-6.9-27-15.5-27-33.7c0-16.8,12.9-29.6,32.9-29.6
	c14.3,0,24.6,5,32,17.9l-17.5,11.2c-3.9-6.9-8-9.6-14.5-9.6c-6.6,0-10.8,4.2-10.8,9.6c0,6.7,4.2,9.4,13.8,13.6l5.6,2.4
	c19.1,8.1,29.9,16.5,29.9,35.2C222.9,211.8,207,222.8,185.6,222.8z"/>
</svg>
