<?xml version="1.0" encoding="utf-8"?>
<!-- Generator: $$$/GeneralStr/196=Adobe Illustrator 27.6.0, SVG Export Plug-In . SVG Version: 6.00 Build 0)  -->
<svg version="1.1" id="Calque_1" xmlns="http://www.w3.org/2000/svg" xmlns:xlink="http://www.w3.org/1999/xlink" x="0px" y="0px"
	 viewBox="0 0 250 250" style="enable-background:new 0 0 250 250;" xml:space="preserve">
<style type="text/css">
	.st0{fill:#464342;}
</style>
<path class="st0" d="M120,10c-35.8,0-65,41.5-65,92.4c0,26.3,7.8,50,20.3,66.9c-1.8,9.5,4.5,18.6,14,20.4c1.1,0.2,2.1,0.3,3.2,0.3
	c9.7,0,17.5-7.8,17.5-17.5S102.2,155,92.5,155c-1,0-1.9,0.1-2.8,0.3C80.7,141.9,75,123.1,75,102.4C75,63.2,95.6,30,120,30
	c20.6,0,38.4,23.7,43.5,54.7c7.1,2,14.2,4.8,21.1,8.1C181.3,46.4,153.6,10,120,10z M112.5,85c-9.7,0-17.5,7.8-17.5,17.5
	s7.8,17.5,17.5,17.5l0,0c6.7,0,12.8-3.8,15.7-9.8c16.2-1,35,4,52.4,14.4c34.3,20.6,53,56.5,40.7,78.5c-4,7.2-11.3,12.4-20.9,15
	c-13.9,3.7-31,1.8-47.9-4.9c-5.3,5-11.2,9.6-17.6,13.9c16.6,8.4,34.2,12.9,50.5,12.9c7.1,0,13.9-0.8,20.2-2.5
	c15-4,26.5-12.5,33.3-24.6c17.9-32.2-3.1-78.5-47.9-105.4c-21.3-12.8-44.9-18.7-65.7-17C121.9,87,117.3,85,112.5,85z M45.8,116.6
	C10.4,144-4.8,184,11.2,212.8c6.7,12.1,18.2,20.6,33.3,24.6c6.4,1.7,13.1,2.5,20.2,2.5c19,0,39.9-6,58.8-17.4
	c21.2-12.7,36.9-29.8,45.8-47.8c8.8-1,15.6-8.3,15.6-17.3c0-9.6-7.9-17.5-17.5-17.5s-17.5,7.9-17.5,17.5c0,2.7,0.7,5.2,1.8,7.5
	c-7.2,14.9-20.7,29.7-38.5,40.4C91.8,218.3,68,223,49.7,218.1c-9.7-2.6-16.9-7.8-20.9-15c-9.7-17.4,0-43.5,21.4-63.8
	C48.1,132.1,46.6,124.5,45.8,116.6z"/>
</svg>
