<?xml version="1.0" encoding="utf-8"?>
<!-- Generator: $$$/GeneralStr/196=Adobe Illustrator 27.6.0, SVG Export Plug-In . SVG Version: 6.00 Build 0)  -->
<svg version="1.1" id="Calque_1" xmlns="http://www.w3.org/2000/svg" xmlns:xlink="http://www.w3.org/1999/xlink" x="0px" y="0px"
	 viewBox="0 0 250 250" style="enable-background:new 0 0 250 250;" xml:space="preserve">
<style type="text/css">
	.st0{fill:#464342;}
</style>
<path class="st0" d="M172.8,19.9c-3.9-0.1-8,0.5-12.1,1.9c-8.2,2.7-16.8,7.8-25.6,15c-3.4,2.8-6.9,6-10.4,9.4
	c-3.4-3.3-6.8-6.4-10.2-9.2c-8.8-7.2-17.3-12.3-25.5-15c-8.2-2.6-16.3-2.7-23,1.1S55.4,34.1,53.6,42.5c-1.8,8.4-1.6,18.4,0.2,29.6
	c0.6,3.9,1.5,8,2.5,12.1c-3.8,1.2-7.5,2.4-10.9,3.7c-10.4,4-18.9,8.9-25.2,14.6S10,115.3,10,123s4,14.7,10.3,20.4S35,154,45.4,158
	c3.7,1.4,7.6,2.7,11.7,3.9c-1.5,5.5-2.7,10.9-3.5,15.9c-1.8,11.2-2,21.2-0.2,29.6c1.8,8.4,5.8,15.5,12.5,19.4
	c6.7,3.9,14.9,3.8,23,1.1s16.7-7.8,25.5-15c3.4-2.8,6.9-5.9,10.3-9.3c3.5,3.4,6.9,6.6,10.4,9.4c8.8,7.2,17.4,12.3,25.5,15
	s16.3,2.7,22.9-1.1s10.7-10.9,12.5-19.3s1.6-18.4-0.2-29.6c-0.8-5.1-2-10.4-3.5-16c4.2-1.3,8.3-2.6,12.1-4.1
	c10.4-4,18.9-8.9,25.2-14.7S240,130.6,240,123s-4-14.7-10.3-20.4c-6.2-5.8-14.8-10.6-25.2-14.6c-3.5-1.4-7.2-2.6-11.1-3.8
	c1-4.2,1.9-8.3,2.6-12.2c1.8-11.2,2-21.2,0.2-29.6c-1.8-8.4-5.8-15.5-12.5-19.4C180.4,21,176.7,20.1,172.8,19.9z M172.3,30.1
	c2.4,0.1,4.5,0.6,6.3,1.7c3.6,2.1,6.2,6.1,7.6,12.7c1.4,6.6,1.4,15.5-0.3,25.9c-0.6,3.5-1.4,7.3-2.3,11.1
	c-10.2-2.5-21.4-4.3-33.4-5.4c-6-8.3-12.2-15.9-18.4-22.6c3.3-3.2,6.6-6.2,9.7-8.8c8.1-6.6,15.8-11.1,22.2-13.2
	C167.1,30.5,169.9,30,172.3,30.1z M77.4,30.1c2.5-0.1,5.3,0.4,8.5,1.4c6.4,2.1,14.1,6.6,22.3,13.2c3.1,2.5,6.3,5.5,9.5,8.6
	c-6.3,6.8-12.5,14.4-18.5,22.8c-11.9,1.1-23.1,2.9-33.2,5.4c-0.9-3.8-1.7-7.6-2.3-11.1C62,60.1,62,51.2,63.4,44.6
	c1.4-6.6,4.1-10.7,7.7-12.7C72.9,30.8,75,30.2,77.4,30.1z M124.9,60.7c4.1,4.4,8.1,9.3,12.2,14.5c-4-0.2-8-0.3-12.1-0.3
	c-4.2,0-8.3,0.1-12.3,0.3C116.7,70,120.8,65.1,124.9,60.7z M125,85c6.8,0,13.4,0.3,19.9,0.8c4.4,6.4,8.8,13.1,12.9,20.3
	c3.6,6.3,6.9,12.6,9.9,18.8c-3,6.3-6.4,12.6-10,19c-3.2,5.6-6.6,10.9-10.1,16.1c-7.3,0.6-14.8,0.9-22.6,0.9c-7.9,0-15.7-0.4-23.1-1
	c-3.4-5.1-6.7-10.3-9.9-15.8c-3.7-6.4-7-12.7-10-19c3-6.3,6.4-12.7,10.1-19.1c4.1-7.1,8.4-13.8,12.8-20.2
	C111.4,85.3,118.1,85,125,85z M157.8,87.1c8.2,1,16,2.5,23.2,4.2c-2.1,7-4.8,14.3-8,21.9c-2.1-4-4.2-8-6.5-12
	C163.6,96.2,160.7,91.6,157.8,87.1z M91.7,87.1c-2.9,4.4-5.7,9-8.5,13.8c-2.3,4.1-4.5,8.1-6.6,12.2c-3.2-7.5-5.8-14.8-7.9-21.7
	C75.8,89.6,83.5,88.2,91.7,87.1z M190.8,93.9c3.5,1.1,7,2.2,10.1,3.4c9.6,3.7,17.1,8.1,22,12.7s7,8.8,7,13s-2.1,8.5-7,13
	s-12.5,8.9-22,12.7c-3.5,1.4-7.3,2.6-11.3,3.8c-2.8-8.8-6.5-18-10.8-27.3C183.8,114.3,187.8,103.8,190.8,93.9z M59,93.9
	c3,9.9,6.9,20.2,11.8,30.9c-4.3,9.4-8,18.6-10.8,27.5c-3.8-1.1-7.5-2.3-10.9-3.7c-9.6-3.7-17.1-8.1-22-12.7s-7-8.8-7-13
	s2.1-8.5,7-13s12.5-8.9,22-12.7C52.2,96.1,55.5,95,59,93.9z M125,100c-13.7,0-25,11.3-25,25s11.3,25,25,25s25-11.3,25-25
	S138.7,100,125,100z M125,110c8.3,0,15,6.7,15,15s-6.7,15-15,15s-15-6.7-15-15S116.7,110,125,110z M173.1,136.8
	c2.6,6.2,4.9,12.3,6.8,18.1c-6,1.4-12.4,2.6-19.2,3.5c1.9-3.1,3.9-6.2,5.7-9.5C168.8,144.9,171,140.9,173.1,136.8z M76.7,136.8
	c2.1,4.1,4.3,8.1,6.7,12.2c1.8,3.2,3.7,6.3,5.6,9.4c-6.7-0.9-13.1-2.1-19.1-3.5C71.8,149.1,74.1,143,76.7,136.8z M67,164.6
	c9,2.1,18.9,3.8,29.3,4.9c6.9,10,14.2,19.1,21.5,27c-3.3,3.2-6.5,6.2-9.6,8.7c-8.1,6.6-15.8,11.1-22.3,13.2s-11.2,1.8-14.8-0.3
	c-3.6-2.1-6.2-6.1-7.6-12.7c-1.4-6.6-1.4-15.5,0.3-25.9C64.5,174.9,65.6,169.8,67,164.6z M182.8,164.7c1.4,5.2,2.5,10.3,3.3,15
	c1.7,10.4,1.7,19.3,0.3,25.9s-4.1,10.7-7.7,12.7s-8.4,2.4-14.9,0.3c-6.4-2.1-14.1-6.6-22.3-13.2c-3.2-2.6-6.4-5.6-9.7-8.8
	c7.3-7.9,14.6-17,21.6-27.1C163.9,168.4,173.7,166.8,182.8,164.7z M109.3,170.5c5.1,0.3,10.3,0.5,15.7,0.5c5.2,0,10.2-0.2,15.2-0.4
	c-5.1,6.9-10.3,13.1-15.4,18.7C119.6,183.6,114.4,177.4,109.3,170.5z"/>
</svg>
