<?xml version="1.0" encoding="utf-8"?>
<!-- Generator: $$$/GeneralStr/196=Adobe Illustrator 27.6.0, SVG Export Plug-In . SVG Version: 6.00 Build 0)  -->
<svg version="1.1" id="Calque_1" xmlns="http://www.w3.org/2000/svg" xmlns:xlink="http://www.w3.org/1999/xlink" x="0px" y="0px"
	 viewBox="0 0 250 250" style="enable-background:new 0 0 250 250;" xml:space="preserve">
<style type="text/css">
	.st0{fill:#464342;}
</style>
<path class="st0" d="M226.4,11.6c-0.9-1-2.3-1.6-3.7-1.6H27.3c-1.4,0-2.8,0.6-3.7,1.6c-1,1-1.4,2.4-1.3,3.8l17.6,197.1
	c0.2,2.1,1.6,3.8,3.6,4.4l80.1,22.9c0.4,0.1,0.9,0.2,1.4,0.2s0.9-0.1,1.4-0.2l80.1-22.9c2-0.6,3.4-2.3,3.6-4.4l17.6-197.1
	C227.8,14,227.3,12.7,226.4,11.6z M184.2,79.6H90.2l2.2,25.4H182l-6.7,75.2L125,195.4l-0.5-0.2l-49.7-15.1l-2.7-30.6h24.4l1.1,11.9
	l27.8,5.8l27.3-5.8l2.9-32.2H70.2l-6.6-74h122.8L184.2,79.6z"/>
</svg>
