<?xml version="1.0" encoding="utf-8"?>
<!-- Generator: $$$/GeneralStr/196=Adobe Illustrator 27.6.0, SVG Export Plug-In . SVG Version: 6.00 Build 0)  -->
<svg version="1.1" id="Layer_1" xmlns="http://www.w3.org/2000/svg" xmlns:xlink="http://www.w3.org/1999/xlink" x="0px" y="0px"
	 viewBox="0 0 256 256" style="enable-background:new 0 0 256 256;" xml:space="preserve">
<style type="text/css">
	.st0{fill:#464342;}
</style>
<g>
	<path class="st0" d="M108.1,139.2c-1.7,1.9-4.7,6.9-6.1,11.1c-2.7,8.3-1.6,16.8,0.4,17.3c2.3,0.6,6-10.5,7.8-14.9
		c1.1-2.7,5.5-14.8,4.5-16.4C114,135.1,110.9,136.1,108.1,139.2z"/>
	<path class="st0" d="M77.5,156.9L77.5,156.9c0,0-0.1,0.1-0.3,0.2c-1.3,0.8-2.4,1.5-3.2,1.9c-3.3,2-8.2,5.4-12.1,9
		c-6.3,5.9-7.6,14.1-4.3,16.1c3.1,1.8,10.2-0.3,15.3-5.9c5.4-5.9,7.6-13.3,5.3-21.7C78,156.6,77.7,156.7,77.5,156.9z"/>
	<path class="st0" d="M145,161.2c-1.5,1.9-5.4,6-5.4,6s-0.5,0.5-0.3,0.7c0.3,0.2,1-0.1,1.8-0.5c2.1-1.3,6.9-4.7,6.9-9.7
		c0-0.1,0-0.3,0-0.4C146.9,158.8,145.9,160.1,145,161.2z"/>
	<path class="st0" d="M226,14H30c-8.8,0-16,7.2-16,16v196c0,8.8,7.2,16,16,16h196c8.8,0,16-7.2,16-16V30C242,21.2,234.8,14,226,14z
		 M216.8,157.7c-0.3,7.5-7.1,10.5-8.4,10.7c-0.9,0.2-1.4,0.2-1.6-0.5c-0.1-0.5,0.2-0.7,1.3-1.4c1.1-0.7,4.3-2.9,4.9-6.9
		c0.6-4-2.5-13.7-17.9-15.5c-7.2-0.8-12.9,0.2-17.2,2c0.8,2.1,1.4,4.3,1.5,6.5c0.2,4.8-3.1,8.4-6.6,11c-2,1.5-4.2,2.5-6,3.1
		c-1.4,0.6-3.4,1.2-4.7,1c-3-0.6-4.6-3.3-2.6-9.2c1.1-3.2,4.3-8.1,9.5-12.2c-1.2-2.4-2.5-4.9-3.2-7.1c-1.3-4.5-1.7-7.2-1.7-7.2
		s-4.3,8.8-9.7,16.8c-0.3,0.5-0.6,0.9-0.9,1.4c1.1,2.5,1.9,5.1,2,7.8c0.2,4.8-1.9,8.5-5.4,11.1c-1.9,1.4-3.9,2.3-5.6,3
		c-1.1,0.5-3.3,1.3-6.5,1.5c-1.7,0.1-3.4,0-4.4-0.7c-1.3-1-1.4-2.2-0.8-3.8c0.6-1.4,4.8-6.2,8.3-10.4c1-1.2,1.9-2.4,2.7-3.5
		c0,0,0,0,0,0s0.6-0.8,1.7-2.3c-1.3-2.8-2.9-5.7-3.7-8.3c-1.3-4.5-1.7-7.2-1.7-7.2s-4.3,11-8.8,19.9c-3.5,6.8-5.8,11-6.8,12.8
		c0,0,0,0.1,0,0.1s-0.2,0.3-0.4,0.7c-0.1,0.2-0.2,0.3-0.2,0.3s0,0,0,0c-1.2,1.7-3.8,5.1-6.4,5.1c-7.1,0-4.5-14.5-4.5-14.5
		s-2.1,5.4-4.4,10c-1.9,3.8-3.7,6.9-7.5,6.9c-1.1,0-2.8,0-4.3-1.4c-3.3-3.1-5.8-11-5.3-17.1c0.4-5.2,1.2-8.8,2.3-11.8
		c-2,1.1-4.2,2.3-6.5,3.7c-1.2,0.7-2.4,1.4-3.5,2.1c0,0.1,0.1,0.1,0.1,0.2c2.9,5.7,3.7,18.1-2.7,27.6c-6.4,9.5-18.3,15.3-29.9,12.1
		c-3.7-1-9.4-8.8-4.5-19.5c4.3-9.5,21.5-18.5,26-20.7c0.4-0.2,0.8-0.4,1.2-0.7c-9-7.9-31.6-18.5-34.7-34.9
		c-0.9-4.6,1.3-15.6,14.8-28.3c11.4-10.6,27.2-18.8,41.8-24c24.6-8.7,50.5-3.6,54.5,12.1c3.9,15.4-9.4,33.8-26.5,40.4
		c-15.3,5.9-27.9,5-33.1,3.3c-5.9-1.9-9.4-5.8-10.2-8c-0.3-0.9-0.9-2.3,0-2.8c0.6-0.3,0.8-0.2,2.3,1.4c1.4,1.6,7.1,5.7,17.8,4.5
		c28.2-3.2,45.2-25.1,39.9-36.9c-3.8-8.3-25.5-12-52.7,1.6c-33.2,16.5-35,30.2-35.3,35.3c-0.8,14.2,17.6,21.7,27.5,32.3
		c0.1,0.1,0.3,0.3,0.4,0.4c1.9-1,3.8-2.1,5.7-3.2c5-2.8,9.7-5.3,11.9-6.5c3.5-5.1,10.6-10.7,15.7-10.7c8.2,0,5.4,11.8,5.4,11.8
		s0.2-0.5,0.4-0.5c0.2,0,1.1-1.5,3.7-0.6c2.6,1,2,2.8,2,3c0,0.4-3.1,10.8-4.4,17.5c-0.6,3.2-0.3,5.5-0.1,5.5c0.3,0,0.8-0.8,1.3-1.7
		c0,0,0,0,0,0s0.4-0.7,1-1.9c0.1-0.2,0.1-0.2,0.1-0.2s0,0,0,0c0.7-1.4,1.7-3.5,2.9-6c2.3-5,10.9-24.3,11.7-26.5
		c0.7-2.1,1.1-4.3,1.5-5.3c0.4-0.9,3.4-1.7,7-1.6c3.6,0,3.9,1.6,4,1.9c0,0.3-1.7,4.6-2.1,7.6c-0.4,3,0,4.5,0.3,7
		c0.2,1.6,1.2,3.7,2.5,6.1c3.7-6.1,10.2-17.6,10.9-20.9c0.4-2.2,1.1-4.3,1.5-5.3c0.4-0.9,3.4-1.7,7-1.6s3.9,1.6,4,1.9
		c0,0.3-1.7,4.6-2.1,7.6c-0.4,3,0,4.5,0.3,7c0.3,2.2,1.9,5,3.6,8.3c4.5-2.2,9.9-3.7,16.1-3.7C208.1,137.9,217.2,148.3,216.8,157.7z"
		/>
	<path class="st0" d="M166.2,156.3c-1.9,4-1.9,5.3-1.4,5.7c2.7-1,7.2-3.3,7.2-9.6c0-0.9-0.2-1.9-0.5-3
		C168.6,152.1,166.9,154.7,166.2,156.3z"/>
</g>
</svg>
